<mxfile host="Electron" agent="Mozilla/5.0 (Windows NT 10.0; Win64; x64) AppleWebKit/537.36 (KHTML, like Gecko) draw.io/24.7.8 Chrome/128.0.6613.36 Electron/32.0.1 Safari/537.36" version="24.7.8">
  <diagram name="Page-1" id="6ZMxAK6I8vo8pIzDUHbe">
    <mxGraphModel dx="2893" dy="1055" grid="1" gridSize="10" guides="1" tooltips="1" connect="1" arrows="1" fold="1" page="1" pageScale="1" pageWidth="1100" pageHeight="850" math="0" shadow="0">
      <root>
        <mxCell id="0" />
        <mxCell id="1" parent="0" />
        <mxCell id="fnpI1iifP_5FCb7dAV5m-4" value="" style="group" vertex="1" connectable="0" parent="1">
          <mxGeometry x="-1020" y="40" width="2100" height="620" as="geometry" />
        </mxCell>
        <mxCell id="tkCDLzLJ6Pxb-ShnCUL_-62" style="edgeStyle=orthogonalEdgeStyle;rounded=0;orthogonalLoop=1;jettySize=auto;html=1;exitX=1;exitY=0.5;exitDx=0;exitDy=0;entryX=0.283;entryY=0.978;entryDx=0;entryDy=0;entryPerimeter=0;" parent="fnpI1iifP_5FCb7dAV5m-4" source="tkCDLzLJ6Pxb-ShnCUL_-7" target="tkCDLzLJ6Pxb-ShnCUL_-2" edge="1">
          <mxGeometry relative="1" as="geometry">
            <Array as="points">
              <mxPoint x="1010" y="505" />
              <mxPoint x="1010" y="353" />
            </Array>
          </mxGeometry>
        </mxCell>
        <mxCell id="tkCDLzLJ6Pxb-ShnCUL_-59" style="edgeStyle=orthogonalEdgeStyle;rounded=0;orthogonalLoop=1;jettySize=auto;html=1;exitX=1;exitY=0.5;exitDx=0;exitDy=0;entryX=-0.006;entryY=0.433;entryDx=0;entryDy=0;entryPerimeter=0;" parent="fnpI1iifP_5FCb7dAV5m-4" source="tkCDLzLJ6Pxb-ShnCUL_-4" target="tkCDLzLJ6Pxb-ShnCUL_-2" edge="1">
          <mxGeometry relative="1" as="geometry">
            <Array as="points">
              <mxPoint x="980" y="145" />
              <mxPoint x="980" y="304" />
            </Array>
          </mxGeometry>
        </mxCell>
        <mxCell id="tkCDLzLJ6Pxb-ShnCUL_-60" style="edgeStyle=orthogonalEdgeStyle;rounded=0;orthogonalLoop=1;jettySize=auto;html=1;exitX=1;exitY=0.5;exitDx=0;exitDy=0;entryX=0.072;entryY=0.722;entryDx=0;entryDy=0;entryPerimeter=0;" parent="fnpI1iifP_5FCb7dAV5m-4" source="tkCDLzLJ6Pxb-ShnCUL_-5" target="tkCDLzLJ6Pxb-ShnCUL_-2" edge="1">
          <mxGeometry relative="1" as="geometry">
            <Array as="points">
              <mxPoint x="950" y="265" />
              <mxPoint x="950" y="330" />
            </Array>
          </mxGeometry>
        </mxCell>
        <mxCell id="tkCDLzLJ6Pxb-ShnCUL_-57" style="edgeStyle=orthogonalEdgeStyle;rounded=0;orthogonalLoop=1;jettySize=auto;html=1;exitX=0.5;exitY=1;exitDx=0;exitDy=0;entryX=0.5;entryY=0;entryDx=0;entryDy=0;" parent="fnpI1iifP_5FCb7dAV5m-4" source="tkCDLzLJ6Pxb-ShnCUL_-1" target="tkCDLzLJ6Pxb-ShnCUL_-2" edge="1">
          <mxGeometry relative="1" as="geometry" />
        </mxCell>
        <mxCell id="tkCDLzLJ6Pxb-ShnCUL_-1" value="Propulsion System" style="rounded=0;whiteSpace=wrap;html=1;fillColor=#f0a30a;fontColor=#000000;strokeColor=#000000;container=0;" parent="fnpI1iifP_5FCb7dAV5m-4" vertex="1">
          <mxGeometry x="1030" y="175" width="95" height="50" as="geometry" />
        </mxCell>
        <mxCell id="tkCDLzLJ6Pxb-ShnCUL_-2" value="Misfire or detonation during testing" style="ellipse;whiteSpace=wrap;html=1;aspect=fixed;fillColor=#a0522d;fontColor=#ffffff;strokeColor=#6D1F00;gradientColor=#595959;container=0;" parent="fnpI1iifP_5FCb7dAV5m-4" vertex="1">
          <mxGeometry x="1032.5" y="265" width="90" height="90" as="geometry" />
        </mxCell>
        <mxCell id="tkCDLzLJ6Pxb-ShnCUL_-58" style="edgeStyle=orthogonalEdgeStyle;rounded=0;orthogonalLoop=1;jettySize=auto;html=1;exitX=1;exitY=0.5;exitDx=0;exitDy=0;entryX=0;entryY=0;entryDx=0;entryDy=0;" parent="fnpI1iifP_5FCb7dAV5m-4" source="tkCDLzLJ6Pxb-ShnCUL_-3" target="tkCDLzLJ6Pxb-ShnCUL_-2" edge="1">
          <mxGeometry relative="1" as="geometry">
            <Array as="points">
              <mxPoint x="1010" y="30" />
              <mxPoint x="1010" y="278" />
            </Array>
          </mxGeometry>
        </mxCell>
        <mxCell id="tkCDLzLJ6Pxb-ShnCUL_-3" value="Improper conditioning of pressure vessels" style="rounded=1;whiteSpace=wrap;html=1;fillColor=#dae8fc;gradientColor=#7ea6e0;strokeColor=#6c8ebf;container=0;" parent="fnpI1iifP_5FCb7dAV5m-4" vertex="1">
          <mxGeometry width="120" height="60" as="geometry" />
        </mxCell>
        <mxCell id="tkCDLzLJ6Pxb-ShnCUL_-4" value="Software error&lt;span style=&quot;color: rgba(0, 0, 0, 0); font-family: monospace; font-size: 0px; text-align: start; text-wrap: nowrap;&quot;&gt;%3CmxGraphModel%3E%3Croot%3E%3CmxCell%20id%3D%220%22%2F%3E%3CmxCell%20id%3D%221%22%20parent%3D%220%22%2F%3E%3CmxCell%20id%3D%222%22%20value%3D%22Improper%20conditioning%20of%20pressure%20vessels%22%20style%3D%22rounded%3D1%3BwhiteSpace%3Dwrap%3Bhtml%3D1%3B%22%20vertex%3D%221%22%20parent%3D%221%22%3E%3CmxGeometry%20x%3D%22-80%22%20y%3D%22150%22%20width%3D%22120%22%20height%3D%2260%22%20as%3D%22geometry%22%2F%3E%3C%2FmxCell%3E%3C%2Froot%3E%3C%2FmxGraphModel%3E&lt;/span&gt;" style="rounded=1;whiteSpace=wrap;html=1;fillColor=#dae8fc;gradientColor=#7ea6e0;strokeColor=#6c8ebf;container=0;" parent="fnpI1iifP_5FCb7dAV5m-4" vertex="1">
          <mxGeometry y="115" width="120" height="60" as="geometry" />
        </mxCell>
        <mxCell id="tkCDLzLJ6Pxb-ShnCUL_-5" value="Poor integration into system" style="rounded=1;whiteSpace=wrap;html=1;fillColor=#dae8fc;gradientColor=#7ea6e0;strokeColor=#6c8ebf;container=0;" parent="fnpI1iifP_5FCb7dAV5m-4" vertex="1">
          <mxGeometry y="235" width="120" height="60" as="geometry" />
        </mxCell>
        <mxCell id="tkCDLzLJ6Pxb-ShnCUL_-61" style="edgeStyle=orthogonalEdgeStyle;rounded=0;orthogonalLoop=1;jettySize=auto;html=1;exitX=1;exitY=0.5;exitDx=0;exitDy=0;entryX=0;entryY=1;entryDx=0;entryDy=0;" parent="fnpI1iifP_5FCb7dAV5m-4" source="tkCDLzLJ6Pxb-ShnCUL_-6" target="tkCDLzLJ6Pxb-ShnCUL_-2" edge="1">
          <mxGeometry relative="1" as="geometry">
            <Array as="points">
              <mxPoint x="980" y="385" />
              <mxPoint x="980" y="342" />
            </Array>
          </mxGeometry>
        </mxCell>
        <mxCell id="tkCDLzLJ6Pxb-ShnCUL_-6" value="Faulty propella&lt;span style=&quot;background-color: initial;&quot;&gt;nts&lt;/span&gt;" style="rounded=1;whiteSpace=wrap;html=1;fillColor=#dae8fc;gradientColor=#7ea6e0;strokeColor=#6c8ebf;container=0;" parent="fnpI1iifP_5FCb7dAV5m-4" vertex="1">
          <mxGeometry y="355" width="120" height="60" as="geometry" />
        </mxCell>
        <mxCell id="tkCDLzLJ6Pxb-ShnCUL_-7" value="Poor environmental conditions" style="rounded=1;whiteSpace=wrap;html=1;fillColor=#dae8fc;gradientColor=#7ea6e0;strokeColor=#6c8ebf;container=0;" parent="fnpI1iifP_5FCb7dAV5m-4" vertex="1">
          <mxGeometry y="475" width="120" height="60" as="geometry" />
        </mxCell>
        <mxCell id="tkCDLzLJ6Pxb-ShnCUL_-8" value="Manufacturer ensures that components complies with design standards and regulations" style="text;html=1;align=center;verticalAlign=middle;whiteSpace=wrap;rounded=0;container=0;" parent="fnpI1iifP_5FCb7dAV5m-4" vertex="1">
          <mxGeometry x="140" y="40" width="190" height="50" as="geometry" />
        </mxCell>
        <mxCell id="tkCDLzLJ6Pxb-ShnCUL_-13" value="" style="rounded=0;whiteSpace=wrap;html=1;fillColor=#d0cee2;strokeColor=#56517e;gradientColor=#1C1C1C;gradientDirection=north;container=0;" parent="fnpI1iifP_5FCb7dAV5m-4" vertex="1">
          <mxGeometry x="230" width="10" height="40" as="geometry" />
        </mxCell>
        <mxCell id="tkCDLzLJ6Pxb-ShnCUL_-17" value="Manufacturer ensures that components complies with design standards and regulations" style="text;html=1;align=center;verticalAlign=middle;whiteSpace=wrap;rounded=0;container=0;" parent="fnpI1iifP_5FCb7dAV5m-4" vertex="1">
          <mxGeometry x="140" y="155" width="190" height="50" as="geometry" />
        </mxCell>
        <mxCell id="tkCDLzLJ6Pxb-ShnCUL_-18" value="" style="rounded=0;whiteSpace=wrap;html=1;fillColor=#d0cee2;strokeColor=#56517e;gradientColor=#1C1C1C;gradientDirection=north;container=0;" parent="fnpI1iifP_5FCb7dAV5m-4" vertex="1">
          <mxGeometry x="230" y="115" width="10" height="40" as="geometry" />
        </mxCell>
        <mxCell id="tkCDLzLJ6Pxb-ShnCUL_-19" value="Manufacturer ensures that components complies with design standards and regulations" style="text;html=1;align=center;verticalAlign=middle;whiteSpace=wrap;rounded=0;container=0;" parent="fnpI1iifP_5FCb7dAV5m-4" vertex="1">
          <mxGeometry x="140" y="275" width="190" height="50" as="geometry" />
        </mxCell>
        <mxCell id="tkCDLzLJ6Pxb-ShnCUL_-20" value="" style="rounded=0;whiteSpace=wrap;html=1;fillColor=#d0cee2;strokeColor=#56517e;gradientColor=#1C1C1C;gradientDirection=north;container=0;" parent="fnpI1iifP_5FCb7dAV5m-4" vertex="1">
          <mxGeometry x="230" y="235" width="10" height="40" as="geometry" />
        </mxCell>
        <mxCell id="tkCDLzLJ6Pxb-ShnCUL_-21" value="Manufacturer ensures that components complies with design standards and regulations" style="text;html=1;align=center;verticalAlign=middle;whiteSpace=wrap;rounded=0;container=0;" parent="fnpI1iifP_5FCb7dAV5m-4" vertex="1">
          <mxGeometry x="140" y="395" width="190" height="50" as="geometry" />
        </mxCell>
        <mxCell id="tkCDLzLJ6Pxb-ShnCUL_-22" value="" style="rounded=0;whiteSpace=wrap;html=1;fillColor=#d0cee2;strokeColor=#56517e;gradientColor=#1C1C1C;gradientDirection=north;container=0;" parent="fnpI1iifP_5FCb7dAV5m-4" vertex="1">
          <mxGeometry x="230" y="355" width="10" height="40" as="geometry" />
        </mxCell>
        <mxCell id="tkCDLzLJ6Pxb-ShnCUL_-23" value="Manufacturer ensures that components complies with design standards and regulations" style="text;html=1;align=center;verticalAlign=middle;whiteSpace=wrap;rounded=0;container=0;" parent="fnpI1iifP_5FCb7dAV5m-4" vertex="1">
          <mxGeometry x="140" y="515" width="190" height="50" as="geometry" />
        </mxCell>
        <mxCell id="tkCDLzLJ6Pxb-ShnCUL_-24" value="" style="rounded=0;whiteSpace=wrap;html=1;fillColor=#d0cee2;strokeColor=#56517e;gradientColor=#1C1C1C;gradientDirection=north;container=0;" parent="fnpI1iifP_5FCb7dAV5m-4" vertex="1">
          <mxGeometry x="230" y="475" width="10" height="40" as="geometry" />
        </mxCell>
        <mxCell id="tkCDLzLJ6Pxb-ShnCUL_-25" value="Component is stored in a robust and controlled environment" style="text;html=1;align=center;verticalAlign=middle;whiteSpace=wrap;rounded=0;container=0;" parent="fnpI1iifP_5FCb7dAV5m-4" vertex="1">
          <mxGeometry x="330" y="40" width="190" height="50" as="geometry" />
        </mxCell>
        <mxCell id="tkCDLzLJ6Pxb-ShnCUL_-26" value="" style="rounded=0;whiteSpace=wrap;html=1;fillColor=#d0cee2;strokeColor=#56517e;gradientColor=#1C1C1C;gradientDirection=north;container=0;" parent="fnpI1iifP_5FCb7dAV5m-4" vertex="1">
          <mxGeometry x="420" width="10" height="40" as="geometry" />
        </mxCell>
        <mxCell id="tkCDLzLJ6Pxb-ShnCUL_-27" value="Software is subject to rigorous testing during development" style="text;html=1;align=center;verticalAlign=middle;whiteSpace=wrap;rounded=0;container=0;" parent="fnpI1iifP_5FCb7dAV5m-4" vertex="1">
          <mxGeometry x="330" y="155" width="190" height="50" as="geometry" />
        </mxCell>
        <mxCell id="tkCDLzLJ6Pxb-ShnCUL_-28" value="" style="rounded=0;whiteSpace=wrap;html=1;fillColor=#d0cee2;strokeColor=#56517e;gradientColor=#1C1C1C;gradientDirection=north;container=0;" parent="fnpI1iifP_5FCb7dAV5m-4" vertex="1">
          <mxGeometry x="420" y="115" width="10" height="40" as="geometry" />
        </mxCell>
        <mxCell id="tkCDLzLJ6Pxb-ShnCUL_-29" value="All couplings are installed as per their relevant SOPs." style="text;html=1;align=center;verticalAlign=middle;whiteSpace=wrap;rounded=0;container=0;" parent="fnpI1iifP_5FCb7dAV5m-4" vertex="1">
          <mxGeometry x="330" y="275" width="190" height="50" as="geometry" />
        </mxCell>
        <mxCell id="tkCDLzLJ6Pxb-ShnCUL_-30" value="" style="rounded=0;whiteSpace=wrap;html=1;fillColor=#d0cee2;strokeColor=#56517e;gradientColor=#1C1C1C;gradientDirection=north;container=0;" parent="fnpI1iifP_5FCb7dAV5m-4" vertex="1">
          <mxGeometry x="420" y="235" width="10" height="40" as="geometry" />
        </mxCell>
        <mxCell id="tkCDLzLJ6Pxb-ShnCUL_-31" value="Packaging is inspected for contamination or damage." style="text;html=1;align=center;verticalAlign=middle;whiteSpace=wrap;rounded=0;container=0;" parent="fnpI1iifP_5FCb7dAV5m-4" vertex="1">
          <mxGeometry x="330" y="395" width="190" height="50" as="geometry" />
        </mxCell>
        <mxCell id="tkCDLzLJ6Pxb-ShnCUL_-32" value="" style="rounded=0;whiteSpace=wrap;html=1;fillColor=#d0cee2;strokeColor=#56517e;gradientColor=#1C1C1C;gradientDirection=north;container=0;" parent="fnpI1iifP_5FCb7dAV5m-4" vertex="1">
          <mxGeometry x="420" y="355" width="10" height="40" as="geometry" />
        </mxCell>
        <mxCell id="tkCDLzLJ6Pxb-ShnCUL_-33" value="Designated storage area for system." style="text;html=1;align=center;verticalAlign=middle;whiteSpace=wrap;rounded=0;container=0;" parent="fnpI1iifP_5FCb7dAV5m-4" vertex="1">
          <mxGeometry x="330" y="515" width="190" height="50" as="geometry" />
        </mxCell>
        <mxCell id="tkCDLzLJ6Pxb-ShnCUL_-34" value="" style="rounded=0;whiteSpace=wrap;html=1;fillColor=#d0cee2;strokeColor=#56517e;gradientColor=#1C1C1C;gradientDirection=north;container=0;" parent="fnpI1iifP_5FCb7dAV5m-4" vertex="1">
          <mxGeometry x="420" y="475" width="10" height="40" as="geometry" />
        </mxCell>
        <mxCell id="tkCDLzLJ6Pxb-ShnCUL_-35" value="Only trained operators are allowed near pressure vessels to avoid improper configuration" style="text;html=1;align=center;verticalAlign=middle;whiteSpace=wrap;rounded=0;container=0;" parent="fnpI1iifP_5FCb7dAV5m-4" vertex="1">
          <mxGeometry x="520" y="40" width="190" height="50" as="geometry" />
        </mxCell>
        <mxCell id="tkCDLzLJ6Pxb-ShnCUL_-36" value="" style="rounded=0;whiteSpace=wrap;html=1;fillColor=#d0cee2;strokeColor=#56517e;gradientColor=#1C1C1C;gradientDirection=north;container=0;" parent="fnpI1iifP_5FCb7dAV5m-4" vertex="1">
          <mxGeometry x="610" width="10" height="40" as="geometry" />
        </mxCell>
        <mxCell id="tkCDLzLJ6Pxb-ShnCUL_-37" value="Software is peer reviewed during development to spot errors." style="text;html=1;align=center;verticalAlign=middle;whiteSpace=wrap;rounded=0;container=0;" parent="fnpI1iifP_5FCb7dAV5m-4" vertex="1">
          <mxGeometry x="520" y="155" width="190" height="50" as="geometry" />
        </mxCell>
        <mxCell id="tkCDLzLJ6Pxb-ShnCUL_-38" value="" style="rounded=0;whiteSpace=wrap;html=1;fillColor=#d0cee2;strokeColor=#56517e;gradientColor=#1C1C1C;gradientDirection=north;container=0;" parent="fnpI1iifP_5FCb7dAV5m-4" vertex="1">
          <mxGeometry x="610" y="115" width="10" height="40" as="geometry" />
        </mxCell>
        <mxCell id="tkCDLzLJ6Pxb-ShnCUL_-39" value="Only standard interfaces are used and only interfaces rated for their use case are used." style="text;html=1;align=center;verticalAlign=middle;whiteSpace=wrap;rounded=0;container=0;" parent="fnpI1iifP_5FCb7dAV5m-4" vertex="1">
          <mxGeometry x="520" y="275" width="190" height="50" as="geometry" />
        </mxCell>
        <mxCell id="tkCDLzLJ6Pxb-ShnCUL_-40" value="" style="rounded=0;whiteSpace=wrap;html=1;fillColor=#d0cee2;strokeColor=#56517e;gradientColor=#1C1C1C;gradientDirection=north;container=0;" parent="fnpI1iifP_5FCb7dAV5m-4" vertex="1">
          <mxGeometry x="610" y="235" width="10" height="40" as="geometry" />
        </mxCell>
        <mxCell id="tkCDLzLJ6Pxb-ShnCUL_-41" value="Propellants are chemically or otherwise tested for performance." style="text;html=1;align=center;verticalAlign=middle;whiteSpace=wrap;rounded=0;container=0;" parent="fnpI1iifP_5FCb7dAV5m-4" vertex="1">
          <mxGeometry x="520" y="395" width="190" height="50" as="geometry" />
        </mxCell>
        <mxCell id="tkCDLzLJ6Pxb-ShnCUL_-42" value="" style="rounded=0;whiteSpace=wrap;html=1;fillColor=#d0cee2;strokeColor=#56517e;gradientColor=#1C1C1C;gradientDirection=north;container=0;" parent="fnpI1iifP_5FCb7dAV5m-4" vertex="1">
          <mxGeometry x="610" y="355" width="10" height="40" as="geometry" />
        </mxCell>
        <mxCell id="tkCDLzLJ6Pxb-ShnCUL_-43" value="Only trained individuals may access storage area." style="text;html=1;align=center;verticalAlign=middle;whiteSpace=wrap;rounded=0;container=0;" parent="fnpI1iifP_5FCb7dAV5m-4" vertex="1">
          <mxGeometry x="520" y="515" width="190" height="50" as="geometry" />
        </mxCell>
        <mxCell id="tkCDLzLJ6Pxb-ShnCUL_-44" value="" style="rounded=0;whiteSpace=wrap;html=1;fillColor=#d0cee2;strokeColor=#56517e;gradientColor=#1C1C1C;gradientDirection=north;container=0;" parent="fnpI1iifP_5FCb7dAV5m-4" vertex="1">
          <mxGeometry x="610" y="475" width="10" height="40" as="geometry" />
        </mxCell>
        <mxCell id="tkCDLzLJ6Pxb-ShnCUL_-45" value="A pressurisation log is maintained so the fatigue of the system is not surpassed." style="text;html=1;align=center;verticalAlign=middle;whiteSpace=wrap;rounded=0;container=0;" parent="fnpI1iifP_5FCb7dAV5m-4" vertex="1">
          <mxGeometry x="710" y="40" width="190" height="50" as="geometry" />
        </mxCell>
        <mxCell id="tkCDLzLJ6Pxb-ShnCUL_-46" value="" style="rounded=0;whiteSpace=wrap;html=1;fillColor=#d0cee2;strokeColor=#56517e;gradientColor=#1C1C1C;gradientDirection=north;container=0;" parent="fnpI1iifP_5FCb7dAV5m-4" vertex="1">
          <mxGeometry x="800" width="10" height="40" as="geometry" />
        </mxCell>
        <mxCell id="tkCDLzLJ6Pxb-ShnCUL_-47" value="Safety interlocks and multiple confirmation and enable stages before a fire command is sent." style="text;html=1;align=center;verticalAlign=middle;whiteSpace=wrap;rounded=0;container=0;" parent="fnpI1iifP_5FCb7dAV5m-4" vertex="1">
          <mxGeometry x="710" y="155" width="190" height="50" as="geometry" />
        </mxCell>
        <mxCell id="tkCDLzLJ6Pxb-ShnCUL_-48" value="" style="rounded=0;whiteSpace=wrap;html=1;fillColor=#d0cee2;strokeColor=#56517e;gradientColor=#1C1C1C;gradientDirection=north;container=0;" parent="fnpI1iifP_5FCb7dAV5m-4" vertex="1">
          <mxGeometry x="800" y="115" width="10" height="40" as="geometry" />
        </mxCell>
        <mxCell id="tkCDLzLJ6Pxb-ShnCUL_-49" value="Multi stage inspections throughout assembly process with tests between assembly stages." style="text;html=1;align=center;verticalAlign=middle;whiteSpace=wrap;rounded=0;container=0;" parent="fnpI1iifP_5FCb7dAV5m-4" vertex="1">
          <mxGeometry x="710" y="275" width="190" height="50" as="geometry" />
        </mxCell>
        <mxCell id="tkCDLzLJ6Pxb-ShnCUL_-50" value="" style="rounded=0;whiteSpace=wrap;html=1;fillColor=#d0cee2;strokeColor=#56517e;gradientColor=#1C1C1C;gradientDirection=north;container=0;" parent="fnpI1iifP_5FCb7dAV5m-4" vertex="1">
          <mxGeometry x="800" y="235" width="10" height="40" as="geometry" />
        </mxCell>
        <mxCell id="tkCDLzLJ6Pxb-ShnCUL_-51" value="Only trusted supplier is used." style="text;html=1;align=center;verticalAlign=middle;whiteSpace=wrap;rounded=0;container=0;" parent="fnpI1iifP_5FCb7dAV5m-4" vertex="1">
          <mxGeometry x="710" y="395" width="190" height="50" as="geometry" />
        </mxCell>
        <mxCell id="tkCDLzLJ6Pxb-ShnCUL_-52" value="" style="rounded=0;whiteSpace=wrap;html=1;fillColor=#d0cee2;strokeColor=#56517e;gradientColor=#1C1C1C;gradientDirection=north;container=0;" parent="fnpI1iifP_5FCb7dAV5m-4" vertex="1">
          <mxGeometry x="800" y="355" width="10" height="40" as="geometry" />
        </mxCell>
        <mxCell id="tkCDLzLJ6Pxb-ShnCUL_-53" value="An environmental monitoring system is maintained so system stays within operational limits." style="text;html=1;align=center;verticalAlign=middle;whiteSpace=wrap;rounded=0;container=0;" parent="fnpI1iifP_5FCb7dAV5m-4" vertex="1">
          <mxGeometry x="710" y="515" width="190" height="50" as="geometry" />
        </mxCell>
        <mxCell id="tkCDLzLJ6Pxb-ShnCUL_-54" value="" style="rounded=0;whiteSpace=wrap;html=1;fillColor=#d0cee2;strokeColor=#56517e;gradientColor=#1C1C1C;gradientDirection=north;container=0;" parent="fnpI1iifP_5FCb7dAV5m-4" vertex="1">
          <mxGeometry x="800" y="475" width="10" height="40" as="geometry" />
        </mxCell>
        <mxCell id="tkCDLzLJ6Pxb-ShnCUL_-81" style="edgeStyle=orthogonalEdgeStyle;rounded=0;orthogonalLoop=1;jettySize=auto;html=1;exitX=0;exitY=0.5;exitDx=0;exitDy=0;entryX=1;entryY=0;entryDx=0;entryDy=0;" parent="fnpI1iifP_5FCb7dAV5m-4" source="tkCDLzLJ6Pxb-ShnCUL_-63" target="tkCDLzLJ6Pxb-ShnCUL_-2" edge="1">
          <mxGeometry relative="1" as="geometry">
            <Array as="points">
              <mxPoint x="1230" y="265" />
              <mxPoint x="1230" y="278" />
            </Array>
          </mxGeometry>
        </mxCell>
        <mxCell id="tkCDLzLJ6Pxb-ShnCUL_-63" value="Catastrophic damage to system leading to fatality" style="rounded=1;whiteSpace=wrap;html=1;fillColor=#f8cecc;gradientColor=#ea6b66;strokeColor=#b85450;container=0;" parent="fnpI1iifP_5FCb7dAV5m-4" vertex="1">
          <mxGeometry x="1980" y="235" width="120" height="60" as="geometry" />
        </mxCell>
        <mxCell id="tkCDLzLJ6Pxb-ShnCUL_-82" style="edgeStyle=orthogonalEdgeStyle;rounded=0;orthogonalLoop=1;jettySize=auto;html=1;exitX=0;exitY=0.5;exitDx=0;exitDy=0;entryX=1;entryY=1;entryDx=0;entryDy=0;" parent="fnpI1iifP_5FCb7dAV5m-4" source="tkCDLzLJ6Pxb-ShnCUL_-64" target="tkCDLzLJ6Pxb-ShnCUL_-2" edge="1">
          <mxGeometry relative="1" as="geometry">
            <Array as="points">
              <mxPoint x="1230" y="380" />
              <mxPoint x="1230" y="342" />
            </Array>
          </mxGeometry>
        </mxCell>
        <mxCell id="tkCDLzLJ6Pxb-ShnCUL_-64" value="Damage to surroundings leading to fatality" style="rounded=1;whiteSpace=wrap;html=1;fillColor=#f8cecc;gradientColor=#ea6b66;strokeColor=#b85450;container=0;" parent="fnpI1iifP_5FCb7dAV5m-4" vertex="1">
          <mxGeometry x="1980" y="350" width="120" height="60" as="geometry" />
        </mxCell>
        <mxCell id="tkCDLzLJ6Pxb-ShnCUL_-65" value="Crew are trained to respond to emergency to maximise safety." style="text;html=1;align=center;verticalAlign=middle;whiteSpace=wrap;rounded=0;container=0;" parent="fnpI1iifP_5FCb7dAV5m-4" vertex="1">
          <mxGeometry x="1780" y="275" width="190" height="50" as="geometry" />
        </mxCell>
        <mxCell id="tkCDLzLJ6Pxb-ShnCUL_-66" value="" style="rounded=0;whiteSpace=wrap;html=1;fillColor=#d0cee2;strokeColor=#56517e;gradientColor=#1C1C1C;gradientDirection=north;container=0;" parent="fnpI1iifP_5FCb7dAV5m-4" vertex="1">
          <mxGeometry x="1870" y="235" width="10" height="40" as="geometry" />
        </mxCell>
        <mxCell id="tkCDLzLJ6Pxb-ShnCUL_-67" value="Surrounds are secure and structurally sound." style="text;html=1;align=center;verticalAlign=middle;whiteSpace=wrap;rounded=0;container=0;" parent="fnpI1iifP_5FCb7dAV5m-4" vertex="1">
          <mxGeometry x="1780" y="400" width="190" height="50" as="geometry" />
        </mxCell>
        <mxCell id="tkCDLzLJ6Pxb-ShnCUL_-68" value="" style="rounded=0;whiteSpace=wrap;html=1;fillColor=#d0cee2;strokeColor=#56517e;gradientColor=#1C1C1C;gradientDirection=north;container=0;" parent="fnpI1iifP_5FCb7dAV5m-4" vertex="1">
          <mxGeometry x="1870" y="360" width="10" height="40" as="geometry" />
        </mxCell>
        <mxCell id="tkCDLzLJ6Pxb-ShnCUL_-69" value="Crew are behind fortified and secure test enclosure." style="text;html=1;align=center;verticalAlign=middle;whiteSpace=wrap;rounded=0;container=0;" parent="fnpI1iifP_5FCb7dAV5m-4" vertex="1">
          <mxGeometry x="1590" y="275" width="190" height="50" as="geometry" />
        </mxCell>
        <mxCell id="tkCDLzLJ6Pxb-ShnCUL_-70" value="" style="rounded=0;whiteSpace=wrap;html=1;fillColor=#d0cee2;strokeColor=#56517e;gradientColor=#1C1C1C;gradientDirection=north;container=0;" parent="fnpI1iifP_5FCb7dAV5m-4" vertex="1">
          <mxGeometry x="1680" y="235" width="10" height="40" as="geometry" />
        </mxCell>
        <mxCell id="tkCDLzLJ6Pxb-ShnCUL_-71" value="Other crew are made aware of testing and evacuated to safe distance." style="text;html=1;align=center;verticalAlign=middle;whiteSpace=wrap;rounded=0;container=0;" parent="fnpI1iifP_5FCb7dAV5m-4" vertex="1">
          <mxGeometry x="1590" y="400" width="190" height="50" as="geometry" />
        </mxCell>
        <mxCell id="tkCDLzLJ6Pxb-ShnCUL_-72" value="" style="rounded=0;whiteSpace=wrap;html=1;fillColor=#d0cee2;strokeColor=#56517e;gradientColor=#1C1C1C;gradientDirection=north;container=0;" parent="fnpI1iifP_5FCb7dAV5m-4" vertex="1">
          <mxGeometry x="1680" y="360" width="10" height="40" as="geometry" />
        </mxCell>
        <mxCell id="tkCDLzLJ6Pxb-ShnCUL_-73" value="A safety interlock system is used to indicate an ongoing test and to restrict entry." style="text;html=1;align=center;verticalAlign=middle;whiteSpace=wrap;rounded=0;container=0;" parent="fnpI1iifP_5FCb7dAV5m-4" vertex="1">
          <mxGeometry x="1400" y="275" width="190" height="50" as="geometry" />
        </mxCell>
        <mxCell id="tkCDLzLJ6Pxb-ShnCUL_-74" value="" style="rounded=0;whiteSpace=wrap;html=1;fillColor=#d0cee2;strokeColor=#56517e;gradientColor=#1C1C1C;gradientDirection=north;container=0;" parent="fnpI1iifP_5FCb7dAV5m-4" vertex="1">
          <mxGeometry x="1490" y="235" width="10" height="40" as="geometry" />
        </mxCell>
        <mxCell id="tkCDLzLJ6Pxb-ShnCUL_-75" value="A safety interlock system is used to limit further spread of fire or gas." style="text;html=1;align=center;verticalAlign=middle;whiteSpace=wrap;rounded=0;container=0;" parent="fnpI1iifP_5FCb7dAV5m-4" vertex="1">
          <mxGeometry x="1400" y="400" width="190" height="50" as="geometry" />
        </mxCell>
        <mxCell id="tkCDLzLJ6Pxb-ShnCUL_-76" value="" style="rounded=0;whiteSpace=wrap;html=1;fillColor=#d0cee2;strokeColor=#56517e;gradientColor=#1C1C1C;gradientDirection=north;container=0;" parent="fnpI1iifP_5FCb7dAV5m-4" vertex="1">
          <mxGeometry x="1490" y="360" width="10" height="40" as="geometry" />
        </mxCell>
        <mxCell id="tkCDLzLJ6Pxb-ShnCUL_-77" value="Automated fire alarms and response systems." style="text;html=1;align=center;verticalAlign=middle;whiteSpace=wrap;rounded=0;container=0;" parent="fnpI1iifP_5FCb7dAV5m-4" vertex="1">
          <mxGeometry x="1210" y="275" width="190" height="50" as="geometry" />
        </mxCell>
        <mxCell id="tkCDLzLJ6Pxb-ShnCUL_-78" value="" style="rounded=0;whiteSpace=wrap;html=1;fillColor=#d0cee2;strokeColor=#56517e;gradientColor=#1C1C1C;gradientDirection=north;container=0;" parent="fnpI1iifP_5FCb7dAV5m-4" vertex="1">
          <mxGeometry x="1300" y="235" width="10" height="40" as="geometry" />
        </mxCell>
        <mxCell id="tkCDLzLJ6Pxb-ShnCUL_-79" value="Automated fire alarms and response systems." style="text;html=1;align=center;verticalAlign=middle;whiteSpace=wrap;rounded=0;container=0;" parent="fnpI1iifP_5FCb7dAV5m-4" vertex="1">
          <mxGeometry x="1210" y="400" width="190" height="50" as="geometry" />
        </mxCell>
        <mxCell id="tkCDLzLJ6Pxb-ShnCUL_-80" value="" style="rounded=0;whiteSpace=wrap;html=1;fillColor=#d0cee2;strokeColor=#56517e;gradientColor=#1C1C1C;gradientDirection=north;container=0;" parent="fnpI1iifP_5FCb7dAV5m-4" vertex="1">
          <mxGeometry x="1300" y="360" width="10" height="40" as="geometry" />
        </mxCell>
        <mxCell id="tkCDLzLJ6Pxb-ShnCUL_-91" value="" style="rounded=0;whiteSpace=wrap;html=1;container=0;" parent="fnpI1iifP_5FCb7dAV5m-4" vertex="1">
          <mxGeometry x="1032.5" y="485" width="517.5" height="135.00000000000003" as="geometry" />
        </mxCell>
        <mxCell id="tkCDLzLJ6Pxb-ShnCUL_-83" value="" style="rounded=0;whiteSpace=wrap;html=1;fillColor=#d0cee2;strokeColor=#56517e;gradientColor=#1C1C1C;gradientDirection=north;container=0;" parent="fnpI1iifP_5FCb7dAV5m-4" vertex="1">
          <mxGeometry x="1138.8899999999999" y="531.14" width="7.21" height="39.77" as="geometry" />
        </mxCell>
        <mxCell id="tkCDLzLJ6Pxb-ShnCUL_-84" value="Preventative barrier" style="text;html=1;align=center;verticalAlign=middle;whiteSpace=wrap;rounded=0;container=0;" parent="fnpI1iifP_5FCb7dAV5m-4" vertex="1">
          <mxGeometry x="1138.8850174216027" y="544.8295454545455" width="86.55052264808363" height="15.340909090909092" as="geometry" />
        </mxCell>
        <mxCell id="tkCDLzLJ6Pxb-ShnCUL_-85" value="Consequence" style="rounded=1;whiteSpace=wrap;html=1;fillColor=#f8cecc;gradientColor=#ea6b66;strokeColor=#b85450;container=0;" parent="fnpI1iifP_5FCb7dAV5m-4" vertex="1">
          <mxGeometry x="1239.8606271777003" y="534.0909090909091" width="86.55052264808363" height="36.818181818181834" as="geometry" />
        </mxCell>
        <mxCell id="tkCDLzLJ6Pxb-ShnCUL_-87" value="Threat" style="rounded=1;whiteSpace=wrap;html=1;fillColor=#dae8fc;gradientColor=#7ea6e0;strokeColor=#6c8ebf;container=0;" parent="fnpI1iifP_5FCb7dAV5m-4" vertex="1">
          <mxGeometry x="1355.2613240418118" y="534.0909090909091" width="86.55052264808363" height="36.818181818181834" as="geometry" />
        </mxCell>
        <mxCell id="tkCDLzLJ6Pxb-ShnCUL_-88" value="Hazard" style="rounded=0;whiteSpace=wrap;html=1;fillColor=#f0a30a;fontColor=#000000;strokeColor=#000000;container=0;" parent="fnpI1iifP_5FCb7dAV5m-4" vertex="1">
          <mxGeometry x="1045.121951219512" y="537.1590909090909" width="68.5191637630662" height="30.681818181818183" as="geometry" />
        </mxCell>
        <mxCell id="tkCDLzLJ6Pxb-ShnCUL_-89" value="Top event." style="ellipse;whiteSpace=wrap;html=1;aspect=fixed;fillColor=#a0522d;fontColor=#ffffff;strokeColor=#6D1F00;gradientColor=#595959;container=0;" parent="fnpI1iifP_5FCb7dAV5m-4" vertex="1">
          <mxGeometry x="1470.66" y="524.89" width="60.11" height="60.11" as="geometry" />
        </mxCell>
        <mxCell id="tkCDLzLJ6Pxb-ShnCUL_-90" value="&lt;font style=&quot;font-size: 18px;&quot;&gt;Legend&lt;/font&gt;" style="text;html=1;align=center;verticalAlign=middle;whiteSpace=wrap;rounded=0;container=0;" parent="fnpI1iifP_5FCb7dAV5m-4" vertex="1">
          <mxGeometry x="1269.612369337979" y="497.27272727272725" width="43.275261324041814" height="18.409090909090917" as="geometry" />
        </mxCell>
      </root>
    </mxGraphModel>
  </diagram>
</mxfile>
